<?xml version="1.0" encoding="UTF-8"?>
<svg xmlns="http://www.w3.org/2000/svg" xmlns:xlink="http://www.w3.org/1999/xlink" width="42px" height="42px" viewBox="0 0 42 42" version="1.1">
<g id="surface1">
<path style=" stroke:none;fill-rule:evenodd;fill:rgb(0%,0%,0%);fill-opacity:1;" d="M 3.5 25.90625 L 3.5 37.1875 C 3.5 37.914062 4.085938 38.5 4.8125 38.5 L 7.640625 38.5 C 8.28125 38.5 8.828125 38.035156 8.929688 37.402344 L 9.625 33.25 L 32.375 33.25 L 33.0625 37.402344 C 33.171875 38.035156 33.71875 38.5 34.359375 38.5 L 37.1875 38.5 C 37.914062 38.5 38.5 37.914062 38.5 37.1875 L 38.5 25.90625 C 38.5 23.84375 37.894531 21.835938 36.75 20.125 L 35.386719 18.078125 C 35.261719 17.894531 35.160156 17.703125 35.074219 17.5 L 36.8125 17.5 C 37.308594 17.5 37.765625 17.214844 37.984375 16.773438 L 38.425781 15.898438 C 38.625 15.492188 38.605469 15.011719 38.363281 14.621094 C 38.128906 14.238281 37.707031 14 37.253906 14 L 34.300781 14 L 33.757812 11.292969 C 33.421875 9.613281 32.128906 8.28125 30.460938 7.890625 C 27.902344 7.296875 24.746094 7 21 7 C 17.253906 7 14.097656 7.296875 11.539062 7.890625 C 9.871094 8.28125 8.578125 9.613281 8.238281 11.292969 L 7.699219 14 L 4.746094 14 C 4.296875 14 3.871094 14.238281 3.636719 14.621094 C 3.394531 15.011719 3.375 15.492188 3.578125 15.898438 L 4.015625 16.773438 C 4.234375 17.214844 4.691406 17.5 5.1875 17.5 L 6.925781 17.5 C 6.84375 17.703125 6.738281 17.894531 6.617188 18.078125 L 5.25 20.125 C 4.105469 21.835938 3.5 23.84375 3.5 25.90625 Z M 31.433594 17.507812 C 31.550781 18.113281 31.75 18.699219 32.027344 19.25 L 9.972656 19.25 C 10.25 18.699219 10.449219 18.113281 10.566406 17.507812 L 11.675781 11.980469 C 11.742188 11.644531 11.996094 11.375 12.335938 11.300781 C 14.605469 10.777344 17.5 10.5 21 10.5 C 24.5 10.5 27.394531 10.773438 29.664062 11.300781 C 30.003906 11.375 30.257812 11.644531 30.324219 11.980469 Z M 9.625 28 C 11.074219 28 12.25 26.824219 12.25 25.375 C 12.25 23.925781 11.074219 22.75 9.625 22.75 C 8.175781 22.75 7 23.925781 7 25.375 C 7 26.824219 8.175781 28 9.625 28 Z M 35 25.375 C 35 26.824219 33.824219 28 32.375 28 C 30.925781 28 29.75 26.824219 29.75 25.375 C 29.75 23.925781 30.925781 22.75 32.375 22.75 C 33.824219 22.75 35 23.925781 35 25.375 Z M 35 25.375 "/>
</g>
</svg>
