<?xml version="1.0" encoding="UTF-8"?>
<svg xmlns="http://www.w3.org/2000/svg" xmlns:xlink="http://www.w3.org/1999/xlink" width="42px" height="42px" viewBox="0 0 42 42" version="1.1">
<g id="surface1">
<path style=" stroke:none;fill-rule:nonzero;fill:rgb(0%,0%,0%);fill-opacity:1;" d="M 19.164062 2.167969 C 19.164062 2.917969 18.082031 4.835938 16.667969 6.417969 C 14.246094 9.167969 13.335938 12.5 15 12.5 C 15.5 12.5 15.832031 12.003906 15.832031 11.335938 C 15.832031 10.75 17 8.832031 18.335938 7.085938 C 20.832031 4 21.667969 0.835938 20 0.835938 C 19.585938 0.835938 19.164062 1.414062 19.164062 2.167969 Z M 19.164062 2.167969 "/>
<path style=" stroke:none;fill-rule:nonzero;fill:rgb(0%,0%,0%);fill-opacity:1;" d="M 23.332031 5.917969 C 23.332031 6.417969 22.585938 7.753906 21.667969 8.914062 C 19.917969 11.25 19.496094 13.335938 20.832031 13.335938 C 21.332031 13.335938 21.667969 12.914062 21.667969 12.417969 C 21.667969 11.914062 22.414062 10.582031 23.332031 9.417969 C 25.082031 7.085938 25.5 5 24.167969 5 C 23.75 5 23.332031 5.417969 23.332031 5.917969 Z M 23.332031 5.917969 "/>
<path style=" stroke:none;fill-rule:nonzero;fill:rgb(0%,0%,0%);fill-opacity:1;" d="M 7.5 15.164062 C 7.5 15.335938 8.25 19 9.167969 23.332031 C 10.085938 27.664062 10.832031 32.832031 10.832031 34.832031 C 10.832031 41.082031 11.582031 41.667969 19.164062 41.667969 C 26.753906 41.667969 27.5 41.082031 27.5 34.832031 C 27.5 32.832031 28.25 27.664062 29.167969 23.332031 C 30.085938 19 30.832031 15.335938 30.832031 15.164062 C 30.832031 15.082031 25.582031 15 19.164062 15 C 12.75 15 7.5 15.082031 7.5 15.164062 Z M 7.5 15.164062 "/>
<path style=" stroke:none;fill-rule:nonzero;fill:rgb(0%,0%,0%);fill-opacity:1;" d="M 30.832031 21.503906 C 30.832031 21.835938 31.667969 22.503906 32.667969 22.917969 C 36.246094 24.5 35.335938 28.332031 30.832031 30.25 C 29 30.996094 28.917969 31.167969 30.332031 31.5 C 32.5 32.003906 36.164062 29 36.5 26.417969 C 36.667969 25.082031 36.082031 23.582031 35.082031 22.585938 C 33.335938 20.832031 30.832031 20.25 30.832031 21.503906 Z M 30.832031 21.503906 "/>
</g>
</svg>
