<?xml version="1.0" encoding="UTF-8"?>
<svg xmlns="http://www.w3.org/2000/svg" xmlns:xlink="http://www.w3.org/1999/xlink" width="42px" height="42px" viewBox="0 0 42 42" version="1.1">
<g id="surface1">
<path style=" stroke:none;fill-rule:nonzero;fill:rgb(0%,0%,0%);fill-opacity:1;" d="M 37.5 36.765625 C 37.785156 36.765625 38.0625 36.636719 38.246094 36.410156 C 38.425781 36.1875 38.5 35.890625 38.441406 35.601562 L 37.832031 32.734375 C 38.179688 32.398438 38.394531 31.929688 38.394531 31.414062 C 38.394531 30.871094 38.15625 30.382812 37.773438 30.050781 L 37.773438 20.082031 L 35.34375 21.585938 L 35.34375 30.050781 C 34.964844 30.382812 34.726562 30.871094 34.726562 31.414062 C 34.726562 31.9375 34.941406 32.398438 35.285156 32.734375 L 34.679688 35.601562 C 34.617188 35.890625 34.6875 36.1875 34.875 36.410156 C 35.058594 36.636719 35.328125 36.765625 35.621094 36.765625 Z M 38.320312 14.269531 L 22.507812 4.476562 C 22.039062 4.1875 21.523438 4.050781 21 4.050781 C 20.476562 4.050781 19.953125 4.1875 19.492188 4.476562 L 3.679688 14.269531 C 3.253906 14.53125 3 14.992188 3 15.484375 C 3 15.980469 3.253906 16.441406 3.679688 16.703125 L 19.492188 26.496094 C 19.953125 26.78125 20.476562 26.925781 21 26.925781 C 21.523438 26.925781 22.039062 26.78125 22.507812 26.496094 L 38.320312 16.703125 C 38.746094 16.441406 39 15.980469 39 15.484375 C 39 14.992188 38.746094 14.53125 38.320312 14.269531 Z M 21 29.355469 C 20.015625 29.355469 19.050781 29.082031 18.214844 28.5625 L 8.988281 22.851562 L 8.988281 32.683594 C 8.988281 35.597656 14.371094 37.949219 21 37.949219 C 27.628906 37.949219 33.011719 35.597656 33.011719 32.683594 L 33.011719 22.851562 L 23.785156 28.5625 C 22.949219 29.082031 21.984375 29.355469 21 29.355469 Z M 21 29.355469 "/>
</g>
</svg>
