<?xml version="1.0" encoding="UTF-8"?>
<svg xmlns="http://www.w3.org/2000/svg" xmlns:xlink="http://www.w3.org/1999/xlink" width="42px" height="42px" viewBox="0 0 42 42" version="1.1">
<g id="surface1">
<path style=" stroke:none;fill-rule:nonzero;fill:rgb(0%,0%,0%);fill-opacity:1;" d="M 9.921875 35.648438 L 17.027344 27.035156 L 20.277344 31.175781 L 14.011719 39.144531 C 11.613281 42.195312 7.171875 38.980469 9.921875 35.648438 Z M 18.222656 16.027344 C 18.898438 13.816406 18.585938 11.929688 16.042969 9.132812 L 9.828125 1.65625 C 8.945312 0.621094 6.871094 2.136719 7.738281 3.394531 L 12.710938 9.515625 C 13.648438 10.660156 11.898438 12.167969 10.929688 10.992188 L 5.789062 4.660156 C 4.835938 3.5625 2.855469 5.015625 3.855469 6.269531 C 5.304688 8.011719 7.546875 10.859375 8.996094 12.601562 C 10.003906 13.621094 8.476562 15.140625 7.480469 13.863281 L 2.378906 7.574219 C 1.628906 6.761719 0.40625 7.265625 0.0820312 8.21875 C -0.265625 9.234375 0.589844 9.972656 1.175781 10.726562 L 6.871094 18.082031 C 8.640625 20.128906 10.613281 21.34375 12.910156 20.65625 C 13.261719 20.546875 13.695312 20.332031 14.15625 20.050781 L 29.453125 39.800781 C 30.273438 40.863281 31.863281 40.976562 32.898438 40.117188 L 33.136719 39.921875 C 34.292969 38.953125 34.484375 37.1875 33.488281 36.046875 L 17.289062 17.429688 C 17.757812 16.902344 18.101562 16.40625 18.222656 16.027344 Z M 22.554688 20.332031 L 25.070312 17.277344 C 21.832031 9.242188 33.835938 -1.460938 39.65625 3.460938 C 46.730469 9.449219 36.222656 23.871094 28.832031 20.308594 L 25.851562 24.097656 Z M 22.554688 20.332031 "/>
</g>
</svg>
