<?xml version="1.0" encoding="UTF-8"?>
<svg xmlns="http://www.w3.org/2000/svg" xmlns:xlink="http://www.w3.org/1999/xlink" width="42px" height="42px" viewBox="0 0 42 42" version="1.1">
<g id="surface1">
<path style=" stroke:none;fill-rule:nonzero;fill:rgb(0%,0%,0%);fill-opacity:1;" d="M 6.445312 37.238281 C 6.132812 36.933594 5.878906 32.207031 5.878906 26.738281 L 5.878906 16.800781 L 19.316406 16.800781 L 19.316406 37.800781 L 13.160156 37.800781 C 9.765625 37.800781 6.746094 37.550781 6.445312 37.238281 Z M 22.679688 27.332031 L 22.679688 16.800781 L 36.171875 16.800781 L 35.699219 37.378906 L 29.1875 37.621094 L 22.679688 37.867188 Z M 4.199219 12.34375 C 4.199219 9.445312 5.789062 8.398438 10.25 8.398438 C 13.605469 8.398438 14.277344 8.140625 14.277344 6.84375 C 14.277344 4.03125 16.851562 2.695312 21.75 2.972656 C 26.304688 3.226562 27.6875 4.132812 27.699219 6.933594 C 27.722656 8.121094 28.476562 8.398438 31.75 8.398438 C 36.210938 8.398438 37.800781 9.445312 37.800781 12.34375 L 37.800781 14.277344 L 4.199219 14.277344 Z M 19.316406 7.140625 C 19.316406 6.449219 18.757812 5.878906 18.0625 5.878906 C 16.75 5.878906 16.394531 6.871094 17.363281 7.839844 C 18.328125 8.804688 19.316406 8.449219 19.316406 7.140625 Z M 25.007812 6.878906 C 25.195312 6.328125 24.738281 5.878906 24.007812 5.878906 C 23.277344 5.878906 22.679688 6.476562 22.679688 7.207031 C 22.679688 8.695312 24.488281 8.433594 25.007812 6.878906 Z M 25.007812 6.878906 "/>
</g>
</svg>
