<?xml version="1.0" encoding="UTF-8"?>
<svg xmlns="http://www.w3.org/2000/svg" xmlns:xlink="http://www.w3.org/1999/xlink" width="42px" height="42px" viewBox="0 0 42 42" version="1.1">
<g id="surface1">
<path style=" stroke:none;fill-rule:nonzero;fill:rgb(0%,0%,0%);fill-opacity:1;" d="M 1.75 5.25 C 1.75 6.125 2.449219 7 3.5 7 C 6.300781 7 9.449219 14.523438 9.449219 21.875 L 9.625 28.875 L 21.523438 29.398438 C 28.875 29.75 33.25 29.222656 33.25 28 C 33.25 26.953125 28.875 26.25 22.574219 26.25 C 16.097656 26.25 12.421875 25.546875 13.125 24.5 C 13.648438 23.449219 17.671875 22.75 21.875 22.75 C 29.222656 22.75 29.925781 22.398438 33.25 15.75 C 35.175781 12.074219 36.75 8.398438 36.75 7.875 C 36.75 7.351562 30.449219 7 22.75 7 C 14.523438 7 8.75 6.300781 8.75 5.25 C 8.75 4.199219 7.171875 3.5 5.25 3.5 C 3.328125 3.5 1.75 4.199219 1.75 5.25 Z M 1.75 5.25 "/>
<path style=" stroke:none;fill-rule:nonzero;fill:rgb(0%,0%,0%);fill-opacity:1;" d="M 9.449219 33.421875 C 7.699219 36.402344 11.726562 39.722656 14.175781 37.273438 C 16.273438 35.175781 14.875 31.5 12.25 31.5 C 11.375 31.5 10.152344 32.375 9.449219 33.421875 Z M 9.449219 33.421875 "/>
<path style=" stroke:none;fill-rule:nonzero;fill:rgb(0%,0%,0%);fill-opacity:1;" d="M 26.953125 33.421875 C 25.199219 36.402344 29.222656 39.722656 31.675781 37.273438 C 33.777344 35.175781 32.375 31.5 29.75 31.5 C 28.875 31.5 27.648438 32.375 26.953125 33.421875 Z M 26.953125 33.421875 "/>
</g>
</svg>
