<?xml version="1.0" encoding="UTF-8"?>
<svg xmlns="http://www.w3.org/2000/svg" xmlns:xlink="http://www.w3.org/1999/xlink" width="42px" height="42px" viewBox="0 0 42 42" version="1.1">
<g id="surface1">
<path style=" stroke:none;fill-rule:evenodd;fill:rgb(0%,0%,0%);fill-opacity:1;" d="M 13.039062 40.789062 C 13.039062 37.175781 15.023438 35.472656 17.636719 33.511719 L 17.636719 24.050781 L 0.464844 31.679688 C 0.464844 25.074219 -1.777344 25.558594 3.5625 22.203125 L 3.613281 22.175781 L 3.613281 18.046875 L 7.449219 18.046875 L 7.449219 19.785156 L 10.265625 18.03125 L 10.265625 13.40625 L 14.097656 13.40625 L 14.097656 15.640625 L 17.640625 13.4375 L 17.640625 3.664062 C 17.640625 2.292969 19.132812 1.175781 20.953125 1.175781 C 22.777344 1.175781 24.269531 2.296875 24.269531 3.664062 L 24.269531 13.4375 L 27.851562 15.664062 L 27.851562 13.40625 L 31.683594 13.40625 L 31.683594 18.050781 L 34.5 19.804688 L 34.5 18.046875 L 38.335938 18.046875 L 38.335938 22.195312 C 43.652344 25.5 41.617188 24.855469 41.617188 31.679688 L 24.269531 24.039062 L 24.269531 33.46875 C 27.054688 35.324219 28.871094 36.75 28.871094 40.796875 L 24.492188 40.832031 C 23.492188 40.046875 22.800781 39.445312 22.265625 39.03125 C 21.863281 39.164062 21.414062 39.238281 20.953125 39.238281 C 20.429688 39.238281 19.933594 39.144531 19.492188 38.980469 C 18.917969 39.394531 18.160156 40.015625 17.027344 40.832031 Z M 13.039062 40.789062 "/>
</g>
</svg>
